<svg width="24" height="24" viewBox="0 0 24 24" fill="none" xmlns="http://www.w3.org/2000/svg">
<path fill-rule="evenodd" clip-rule="evenodd" d="M2.08727 3.61195C2.08727 3.19774 2.42306 2.86195 2.83727 2.86195H6.10101C6.45848 2.86195 6.76627 3.11424 6.83642 3.46476L7.53231 6.94162H20.7878C21.0113 6.94162 21.2232 7.04132 21.3657 7.21354C21.5082 7.38576 21.5664 7.61255 21.5245 7.83212L20.219 14.6778L20.218 14.6834L20.218 14.6834C20.1091 15.2317 19.8108 15.7242 19.3753 16.0748C18.9419 16.4237 18.4001 16.6098 17.8439 16.601H9.92611C9.36995 16.6098 8.82814 16.4237 8.39472 16.0748C7.95941 15.7244 7.66117 15.232 7.55218 14.6839L7.55208 14.6834L6.1888 7.87209C6.18351 7.85069 6.17914 7.82892 6.17574 7.80684L5.48624 4.36195H2.83727C2.42306 4.36195 2.08727 4.02616 2.08727 3.61195ZM7.83254 8.44162L9.02312 14.3901L9.02334 14.3912C9.06366 14.5942 9.1741 14.7766 9.33532 14.9063C9.49654 15.0361 9.69828 15.1051 9.90521 15.1011L9.91958 15.101H17.8505L17.8648 15.1011C18.0718 15.1051 18.2735 15.0361 18.4347 14.9063C18.5953 14.7771 18.7055 14.5956 18.7462 14.3935L18.7467 14.3912L19.8813 8.44162H7.83254ZM17.59 19.3125C17.6628 19.3125 17.7219 19.2535 17.7219 19.1806C17.7219 19.1078 17.6628 19.0488 17.59 19.0488C17.5172 19.0488 17.4582 19.1078 17.4582 19.1806C17.4582 19.2535 17.5172 19.3125 17.59 19.3125ZM17.59 20.8125C18.4913 20.8125 19.2219 20.0819 19.2219 19.1806C19.2219 18.2794 18.4913 17.5488 17.59 17.5488C16.6888 17.5488 15.9582 18.2794 15.9582 19.1806C15.9582 20.0819 16.6888 20.8125 17.59 20.8125ZM10.2466 19.1806C10.2466 19.2535 10.1876 19.3125 10.1147 19.3125C10.0419 19.3125 9.98287 19.2535 9.98287 19.1806C9.98287 19.1078 10.0419 19.0488 10.1147 19.0488C10.1876 19.0488 10.2466 19.1078 10.2466 19.1806ZM11.7466 19.1806C11.7466 20.0819 11.016 20.8125 10.1147 20.8125C9.21348 20.8125 8.48287 20.0819 8.48287 19.1806C8.48287 18.2794 9.21348 17.5488 10.1147 17.5488C11.016 17.5488 11.7466 18.2794 11.7466 19.1806Z" class="fill" fill="#121212"/>
</svg>
