<svg width="24" height="24" viewBox="0 0 24 24" fill="none" xmlns="http://www.w3.org/2000/svg">
<path d="M9.22046 11.8961C8.42934 11.8961 7.65598 12.1307 6.99818 12.5702C6.34038 13.0097 5.82769 13.6344 5.52494 14.3653C5.22219 15.0962 5.14298 15.9005 5.29732 16.6764C5.45166 17.4523 5.83262 18.1651 6.39203 18.7245C6.95144 19.2839 7.66418 19.6649 8.4401 19.8192C9.21602 19.9735 10.0203 19.8943 10.7512 19.5916C11.4821 19.2888 12.1068 18.7761 12.5463 18.1183C12.9859 17.4605 13.2205 16.6872 13.2205 15.8961V3.89606C13.2205 5.22214 13.7472 6.49391 14.6849 7.43159C15.6226 8.36927 16.8944 8.89606 18.2205 8.89606" stroke="#121212" stroke-width="1.5" stroke-linecap="round" stroke-linejoin="round"/>
</svg>
