<svg width="24" height="24" viewBox="0 0 24 24" fill="none" xmlns="http://www.w3.org/2000/svg">
<path fill-rule="evenodd" clip-rule="evenodd" d="M8.33423 8C8.33423 6.20507 9.7893 4.75 11.5842 4.75C13.3792 4.75 14.8342 6.20507 14.8342 8C14.8342 9.79493 13.3792 11.25 11.5842 11.25C9.7893 11.25 8.33423 9.79493 8.33423 8ZM11.5842 3.25C8.96088 3.25 6.83423 5.37665 6.83423 8C6.83423 10.6234 8.96088 12.75 11.5842 12.75C14.2076 12.75 16.3342 10.6234 16.3342 8C16.3342 5.37665 14.2076 3.25 11.5842 3.25ZM7.28613 16.598C7.89562 15.9885 8.72228 15.6461 9.58423 15.6461H13.5842C14.4462 15.6461 15.2728 15.9885 15.8823 16.598C16.4918 17.2075 16.8342 18.0341 16.8342 18.8961V20.8961C16.8342 21.3103 17.17 21.6461 17.5842 21.6461C17.9984 21.6461 18.3342 21.3103 18.3342 20.8961V18.8961C18.3342 17.6363 17.8338 16.4281 16.943 15.5373C16.0522 14.6465 14.844 14.1461 13.5842 14.1461H9.58423C8.32445 14.1461 7.11627 14.6465 6.22547 15.5373C5.33467 16.4281 4.83423 17.6363 4.83423 18.8961V20.8961C4.83423 21.3103 5.17001 21.6461 5.58423 21.6461C5.99844 21.6461 6.33423 21.3103 6.33423 20.8961V18.8961C6.33423 18.0341 6.67664 17.2075 7.28613 16.598Z" class="fill" fill="#121212"/>
</svg>
