<svg width="24" height="24" viewBox="0 0 24 24" fill="none" xmlns="http://www.w3.org/2000/svg">
<path fill-rule="evenodd" clip-rule="evenodd" d="M4.12646 8.89606C4.12646 7.10113 5.58154 5.64606 7.37646 5.64606H17.3765C19.1714 5.64606 20.6265 7.10113 20.6265 8.89606V14.8961C20.6265 16.691 19.1714 18.1461 17.3765 18.1461H7.37646C5.58154 18.1461 4.12646 16.691 4.12646 14.8961V8.89606ZM7.37646 4.14606C4.75311 4.14606 2.62646 6.2727 2.62646 8.89606V14.8961C2.62646 17.5194 4.75311 19.6461 7.37646 19.6461H17.3765C19.9998 19.6461 22.1265 17.5194 22.1265 14.8961V8.89606C22.1265 6.2727 19.9998 4.14606 17.3765 4.14606H7.37646ZM10.7623 8.25294C10.5306 8.11392 10.2421 8.11028 10.0069 8.24341C9.77181 8.37654 9.62646 8.62585 9.62646 8.89606V14.8961C9.62646 15.1663 9.77181 15.4156 10.0069 15.5487C10.2421 15.6818 10.5306 15.6782 10.7623 15.5392L15.7623 12.5392C15.9882 12.4036 16.1265 12.1595 16.1265 11.8961C16.1265 11.6326 15.9882 11.3885 15.7623 11.2529L10.7623 8.25294ZM13.9187 11.8961L11.1265 13.5714V10.2207L13.9187 11.8961Z" class="fill" fill="#121212"/>
</svg>
